<svg xmlns:xlink="http://www.w3.org/1999/xlink" xmlns="http://www.w3.org/2000/svg" fill="none" viewBox="0 0 63 96" class="home_flame__lfj05 home_flame-2__xifus" width="64"  height="98" ><path fill="#000" d="M48.06 59.376c-.088-.2-.311-.153-.358.061-.457 2.084.118 10.872-3.684 9.753-2.642-.778-2.642-7.937 2.58-11.969 6.886-5.316 2.268-18.237.565-22.728-.147-.385-.656-.244-.63.173.349 5.435 1.179 9.2-.801 12.129-2.21 3.267-5.155-2.99-2.332-5.213 2.823-2.225 2.58-6.71.552-9.662-1.704-2.481-2.12-6.784-2.207-9.417-.022-.671-.856-.795-1.03-.153-.827 3.049-.396 6.301-1.117 9.378-.283 1.21-.778 2.399-1.588 3.355-.543.64-1.258 1.29-2.075 1.544-1.107.346-1.801-.428-1.961-1.48-.161-1.059.06-2.18.378-3.189.37-1.17.73-2.33.948-3.541.426-2.368.429-5.066-1.145-7.042-.568-.711-1.302-1.273-2.11-1.69-6.304-3.25-3.853-3.748-4.044-10.042-.026-.883-1.232-1.12-1.6-.317-3.977 8.713-3.171 11.6-1.316 15.714 2.506 5.56 5.013 13.067.494 12.735-3.987-.294-2.31-10.705-3.506-14.59-.197-.643-1.143-.519-1.169.153-.098 2.632-.57 6.936-2.504 9.416-2.3 2.953-2.576 7.438.627 9.662 3.202 2.224-.14 8.48-2.646 5.213-2.247-2.929-1.305-6.695-.91-12.13.031-.418-.547-.559-.713-.174-1.932 4.491-6.106 16.387.648 22.73 1.675 1.572 3.647 2.857 4.944 4.795.866 1.294 1.334 2.999.855 4.523-.471 1.5-2.36 3.295-3.913 2.003-1.305-1.085-1.535-3.394-1.772-4.947-.212-1.394-.32-2.8-.527-4.195-.04-.267-.224-1.695-.591-.858-.912 2.08-3.712 10.241.286 16.711.564.913 1.181 1.795 1.77 2.691 1.697 2.585 3.911 4.854 6.702 6.245 4.036 2.01 8.854 2.301 13.152 1 5.319-1.61 10.115-6.65 12.35-11.644 2.059-4.598 1.38-10.479-.601-15.003z"></path><rect width="61.229" height="94.648" x="0.5" y="0.5" stroke="#000000" rx="19.5" fill="none"></rect></svg>